<mxfile host="app.diagrams.net" modified="2024-04-30T02:58:28.386Z" agent="Mozilla/5.0 (Windows NT 10.0; Win64; x64) AppleWebKit/537.36 (KHTML, like Gecko) Chrome/124.0.0.0 Safari/537.36" version="24.3.1" etag="c5O77LyCi7PYgxiW_-Io" type="github">
  <diagram name="Halaman-1" id="OEboe4QJ8jvTvGQWzq0m">
    <mxGraphModel>
      <root>
        <mxCell id="0" />
        <mxCell id="1" parent="0" />
      </root>
    </mxGraphModel>
  </diagram>
</mxfile>
